<svg width="119" height="38" viewBox="0 0 119 38" fill="none" xmlns="http://www.w3.org/2000/svg">
<path d="M5.62477 36.0921C2.51829 36.0921 0 33.5738 0 30.4673V30.2621C0 27.1556 2.51829 24.6373 5.62477 24.6373C8.73124 24.6373 11.2495 27.1556 11.2495 30.2621V30.4673C11.2495 33.5738 8.73124 36.0921 5.62477 36.0921Z" fill="#131313"/>
<path d="M32.3704 37.18C27.3848 37.18 23.4858 36.1561 20.6734 34.1083C17.861 32.0605 16.3696 29.1809 16.1992 25.4693H25.2755C25.446 26.5785 26.1064 27.581 27.257 28.4769C28.4501 29.3302 30.2185 29.7568 32.5621 29.7568C34.3518 29.7568 35.8219 29.4582 36.9725 28.8609C38.1656 28.221 38.7622 27.3251 38.7622 26.1732C38.7622 25.1493 38.3147 24.3387 37.4199 23.7414C36.525 23.1015 34.9271 22.6536 32.6261 22.3976L29.8776 22.1416C25.659 21.715 22.4844 20.5418 20.3538 18.622C18.2659 16.7022 17.2219 14.2491 17.2219 11.2628C17.2219 8.78839 17.8397 6.71928 19.0755 5.05546C20.3112 3.39163 22.0157 2.1331 24.1889 1.27986C26.4047 0.42662 28.9188 0 31.7312 0C36.2481 0 39.8914 1.00256 42.6612 3.00768C45.4309 4.97013 46.8797 7.82849 47.0076 11.5828H37.9312C37.7608 10.4309 37.1642 9.47098 36.1415 8.70306C35.1188 7.89248 33.6061 7.48719 31.6034 7.48719C30.0267 7.48719 28.7697 7.78583 27.8322 8.3831C26.8948 8.98037 26.426 9.79095 26.426 10.8148C26.426 11.7961 26.8308 12.5426 27.6405 13.0546C28.4501 13.5665 29.7711 13.9292 31.6034 14.1425L34.3518 14.3984C38.6556 14.8677 42.0007 16.0623 44.3869 17.9821C46.7732 19.9019 47.9663 22.4829 47.9663 25.7252C47.9663 28.0716 47.3272 30.1194 46.0488 31.8686C44.7704 33.5751 42.9594 34.8976 40.6158 35.8361C38.2721 36.732 35.5237 37.18 32.3704 37.18Z" fill="#131313"/>
<path d="M67.8872 37.18C62.9016 37.18 59.0026 36.1561 56.1903 34.1083C53.3779 32.0605 51.8865 29.1809 51.716 25.4693H60.7923C60.9628 26.5785 61.6233 27.581 62.7738 28.4769C63.9669 29.3302 65.7353 29.7568 68.079 29.7568C69.8687 29.7568 71.3388 29.4582 72.4893 28.8609C73.6824 28.221 74.279 27.3251 74.279 26.1732C74.279 25.1493 73.8316 24.3387 72.9367 23.7414C72.0419 23.1015 70.4439 22.6536 68.1429 22.3976L65.3944 22.1416C61.1758 21.715 58.0013 20.5418 55.8707 18.622C53.7827 16.7022 52.7387 14.2491 52.7387 11.2628C52.7387 8.78839 53.3566 6.71928 54.5923 5.05546C55.8281 3.39163 57.5325 2.1331 59.7057 1.27986C61.9216 0.42662 64.4357 0 67.248 0C71.7649 0 75.4082 1.00256 78.178 3.00768C80.9478 4.97013 82.3966 7.82849 82.5244 11.5828H73.4481C73.2776 10.4309 72.6811 9.47098 71.6584 8.70306C70.6357 7.89248 69.123 7.48719 67.1202 7.48719C65.5436 7.48719 64.2865 7.78583 63.3491 8.3831C62.4116 8.98037 61.9429 9.79095 61.9429 10.8148C61.9429 11.7961 62.3477 12.5426 63.1573 13.0546C63.9669 13.5665 65.2879 13.9292 67.1202 14.1425L69.8687 14.3984C74.1725 14.8677 77.5175 16.0623 79.9038 17.9821C82.29 19.9019 83.4832 22.4829 83.4832 25.7252C83.4832 28.0716 82.844 30.1194 81.5656 31.8686C80.2873 33.5751 78.4763 34.8976 76.1326 35.8361C73.789 36.732 71.0405 37.18 67.8872 37.18Z" fill="#131313"/>
<path d="M103.404 37.18C98.4185 37.18 94.5195 36.1561 91.7071 34.1083C88.8947 32.0605 87.4033 29.1809 87.2328 25.4693H96.3092C96.4796 26.5785 97.1401 27.581 98.2906 28.4769C99.4838 29.3302 101.252 29.7568 103.596 29.7568C105.386 29.7568 106.856 29.4582 108.006 28.8609C109.199 28.221 109.796 27.3251 109.796 26.1732C109.796 25.1493 109.348 24.3387 108.454 23.7414C107.559 23.1015 105.961 22.6536 103.66 22.3976L100.911 22.1416C96.6927 21.715 93.5181 20.5418 91.3875 18.622C89.2995 16.7022 88.2555 14.2491 88.2555 11.2628C88.2555 8.78839 88.8734 6.71928 90.1091 5.05546C91.3449 3.39163 93.0494 2.1331 95.2226 1.27986C97.4384 0.42662 99.9525 0 102.765 0C107.282 0 110.925 1.00256 113.695 3.00768C116.465 4.97013 117.913 7.82849 118.041 11.5828H108.965C108.794 10.4309 108.198 9.47098 107.175 8.70306C106.153 7.89248 104.64 7.48719 102.637 7.48719C101.06 7.48719 99.8034 7.78583 98.8659 8.3831C97.9284 8.98037 97.4597 9.79095 97.4597 10.8148C97.4597 11.7961 97.8645 12.5426 98.6741 13.0546C99.4838 13.5665 100.805 13.9292 102.637 14.1425L105.386 14.3984C109.689 14.8677 113.034 16.0623 115.421 17.9821C117.807 19.9019 119 22.4829 119 25.7252C119 28.0716 118.361 30.1194 117.082 31.8686C115.804 33.5751 113.993 34.8976 111.649 35.8361C109.306 36.732 106.557 37.18 103.404 37.18Z" fill="#131313"/>
</svg>
